<svg width="158" height="167" viewBox="0 0 158 167" fill="none" xmlns="http://www.w3.org/2000/svg">
<rect x="1.13454" y="25.3548" width="91" height="142" rx="9" transform="rotate(-8.34452 1.13454 25.3548)" fill="#F3F4F6" stroke="#6B7280" stroke-width="2" stroke-dasharray="4 4"/>
<rect x="67.9337" y="1.22474" width="91" height="142" rx="9" transform="rotate(15 67.9337 1.22474)" fill="#F3F4F6" stroke="#6B7280" stroke-width="2" stroke-dasharray="4 4"/>
<path d="M67.3168 97.911L126.756 38.106C126.756 38.106 126.756 38.1059 126.756 38.1059C128.097 36.7568 129.915 36 131.809 36C133.703 36 135.52 36.7567 136.861 38.1058C138.203 39.4556 138.957 41.2873 138.957 43.1986C138.957 45.1098 138.203 46.9416 136.861 48.2914L71.6605 113.894C71.6605 113.894 71.6605 113.894 71.6604 113.894C70.3191 115.243 68.5015 116 66.6076 116C64.7136 116 62.896 115.243 61.5547 113.894C61.5547 113.894 61.5546 113.894 61.5546 113.894L28.9604 81.099C27.6609 79.7421 26.941 77.9252 26.9573 76.0382C26.9736 74.1483 27.7271 72.3417 29.0534 71.0072C30.3796 69.6728 32.1723 68.9171 34.0451 68.9007C35.9151 68.8843 37.7179 69.6064 39.0662 70.9136L65.8983 97.911L66.6076 98.6247L67.3168 97.911Z" fill="#F3F4F6" stroke="#6B7280" stroke-width="2"/>
</svg>
