<svg width="128" height="60" viewBox="0 0 128 60" fill="none" xmlns="http://www.w3.org/2000/svg">
    <path d="M16.5191 13.0484C16.5191 15.2024 16.6947 15.302 18.4632 15.5386V15.8872H12.3047V15.5386C14.0607 15.302 14.2363 15.2024 14.2363 13.0484V4.64418C14.2363 2.49021 14.0607 2.3906 12.3047 2.15404V1.80542H18.4632V2.15404C16.6947 2.3906 16.5191 2.49021 16.5191 4.64418V13.0484ZM20.9216 4.74379C22.9787 2.88863 23.355 2.25365 21.5739 2.15404V1.80542H26.2022V2.15404C24.9479 2.291 24.4713 2.66452 22.038 4.78114L18.6388 7.74441L23.8316 13.5713C25.0859 14.916 25.4998 15.4141 26.6161 15.5386V15.8872H20.7837V15.5386C22.2888 15.4514 21.9627 14.7915 21.2979 14.032L16.5442 8.71557L20.9216 4.74379Z" fill="black"/>
    <path d="M28.3091 15.5386C30.0651 15.302 30.2407 15.2024 30.2407 13.0484V4.64418C30.2407 2.49021 30.0651 2.3906 28.3091 2.15404V1.80542H34.4676V2.15404C32.7116 2.3906 32.5235 2.49021 32.5235 4.64418V14.3433C32.5235 15.053 32.6489 15.2273 33.3889 15.2273H33.7276C37.2647 15.2273 38.3057 14.7791 39.4722 11.4921H39.8485L39.096 15.8996H28.3091V15.5386Z" fill="black"/>
    <path d="M40.752 15.5385C42.0062 15.414 42.2571 15.0654 43.3734 12.2266L47.5753 1.70579C47.7932 1.67652 48.0027 1.60278 48.1905 1.48921C48.3783 1.37564 48.5404 1.2247 48.6665 1.0459H48.7543L53.7715 13.5962C54.361 15.0654 54.5617 15.4514 55.8285 15.5385V15.8872H50.0964V15.5385C51.5012 15.3767 51.8148 15.0032 51.4259 14.0195L50.3472 11.3053H44.6653L44.565 11.5668C43.1602 15.1401 43.4738 15.3767 45.1545 15.5385V15.8872H40.752V15.5385ZM45.0542 10.3466H49.9584L47.5126 4.12123L45.0542 10.3466Z" fill="black"/>
    <path d="M57.6973 15.0904V10.3093H58.0861C58.5753 14.6173 60.3564 15.439 62.2378 15.439C63.9185 15.439 65.5366 14.5426 65.5366 12.6999C65.5366 11.3178 64.2823 10.5832 62.7646 9.886L61.1842 9.18876C59.1021 8.26741 57.7976 6.97253 57.7976 5.10492C57.7976 2.95095 59.9048 1.36971 62.5263 1.36971C63.9188 1.34331 65.2967 1.65534 66.54 2.27861V6.33755H66.1386C65.6494 3.03811 64.207 2.06695 62.3758 2.06695C60.7954 2.06695 59.4784 2.8887 59.4784 4.34543C59.4784 5.80217 60.6574 6.46205 61.6483 6.91028L63.3165 7.64487C65.5616 8.62848 67.2926 9.68679 67.2926 11.8906C67.2926 14.6297 64.784 16.1487 62.1249 16.1487C60.585 16.1523 59.0667 15.7894 57.6973 15.0904Z" fill="black"/>
    <path d="M70.8672 15.0904V10.3093H71.256C71.7452 14.6173 73.5263 15.439 75.3952 15.439C77.2641 15.439 78.7065 14.5426 78.7065 12.6999C78.7065 11.3178 77.4522 10.5832 75.922 9.886L74.3416 9.18876C72.272 8.26741 70.955 6.97253 70.955 5.10492C70.955 2.95095 73.0747 1.36971 75.6962 1.36971C77.0847 1.34333 78.4586 1.65541 79.6974 2.27861L79.7601 6.33754H79.3713C78.8821 3.0381 77.4397 2.06695 75.6084 2.06695C73.7771 2.06695 72.7486 2.87624 72.7486 4.33298C72.7486 5.78971 73.9151 6.4496 74.9185 6.89783L76.5742 7.63242C78.8319 8.61602 80.5503 9.67434 80.5503 11.8781C80.5503 14.6173 78.0417 16.1363 75.3826 16.1363C73.814 16.1588 72.2637 15.7997 70.8672 15.0904Z" fill="black"/>
    <path d="M87.3734 13.0484C87.3734 15.2024 87.549 15.302 89.3176 15.5386V15.8872H83.1465V15.5386C84.915 15.302 85.0906 15.2024 85.0906 13.0484V4.64418C85.0906 2.49021 84.915 2.3906 83.1465 2.15404V1.80542H89.3176V2.15404C87.549 2.3906 87.3734 2.49021 87.3734 4.64418V13.0484Z" fill="black"/>
    <path d="M95.8025 13.0484C95.8025 15.2024 95.9781 15.302 97.7466 15.5386V15.8872H91.563V15.5386C93.319 15.302 93.4946 15.2024 93.4946 13.0484V4.64418C93.4946 2.49021 93.319 2.3906 91.563 2.15404V1.80542H97.7215V2.15404C95.953 2.3906 95.7774 2.49021 95.7774 4.64418L95.8025 13.0484ZM100.205 4.74379C102.262 2.88863 102.638 2.25365 100.857 2.15404V1.80542H105.486V2.15404C104.231 2.291 103.755 2.66452 101.321 4.78114L97.9222 7.74441L103.102 13.5713C104.357 14.916 104.771 15.4141 105.887 15.5386V15.8872H100.067V15.5386C101.572 15.4514 101.246 14.7915 100.581 14.032L95.8276 8.71557L100.205 4.74379Z" fill="black"/>
    <path d="M12.8062 36.2564V31.4878H13.195C13.6842 35.7958 15.4652 36.6175 17.3467 36.6175C19.0274 36.6175 20.6454 35.7211 20.6454 33.8784C20.6454 32.4963 19.3912 31.7617 17.8735 31.0645L16.3056 30.3548C14.2235 29.4459 12.919 28.151 12.919 26.2834C12.919 24.1294 15.0262 22.5482 17.6477 22.5482C19.0409 22.5156 20.4203 22.828 21.6614 23.4571V27.516H21.3228C20.8336 24.2166 19.3912 23.2454 17.5599 23.2454C15.9795 23.2454 14.6625 24.0672 14.6625 25.5239C14.6625 26.9807 15.8415 27.6405 16.8324 28.0763L18.5006 28.8234C20.7458 29.807 22.4767 30.8528 22.4767 33.0691C22.4767 35.8082 19.9681 37.3272 17.309 37.3272C15.7419 37.3456 14.1947 36.9777 12.8062 36.2564Z" fill="black"/>
    <path d="M28.397 36.6921C30.3536 36.5178 30.5543 36.2065 30.5543 34.202V23.5815H29.9397C27.0298 23.5815 26.1142 24.1792 25.0355 27.3914H24.6592L25.2362 22.9216C26.7162 22.9839 28.422 22.9839 29.6512 22.9839H33.7402C34.9945 22.9839 36.6502 22.9839 38.1428 22.9216L38.7072 27.3914H38.356C37.2648 24.1792 36.3366 23.5815 33.4266 23.5815H32.8371V34.2269C32.8371 36.2065 33.0378 36.5178 34.9945 36.717V37.0781H28.397V36.6921Z" fill="black"/>
    <path d="M44.9789 34.2271C44.9789 36.3811 45.1545 36.4807 46.9105 36.7173V37.0659H40.752V36.7173C42.508 36.4932 42.6836 36.3936 42.6836 34.2271V25.8104C42.6836 23.6565 42.508 23.5693 40.752 23.3203V22.9717H46.9105V23.3203C45.1545 23.5569 44.9789 23.644 44.9789 25.8104V34.2271Z" fill="black"/>
    <path d="M49.1807 36.7046C50.9367 36.4805 51.1123 36.3809 51.1123 34.2144V25.8102C51.1123 23.6562 50.9367 23.5691 49.1807 23.3201V22.9714H56.5935C57.8478 22.9714 59.5285 22.9714 60.971 22.9092L61.5228 27.2545H61.1717C60.0804 23.843 58.6631 23.6687 54.9755 23.6687H53.4076V29.3587H56.0918C57.1956 29.3587 57.9105 28.8108 58.0986 27.1798H58.4498V32.3717H58.0986C57.9105 30.7407 57.1956 30.1928 56.0918 30.1928H53.4076V34.2393C53.4076 36.1692 53.4076 36.5178 55.5148 36.7295V37.0905H49.2434L49.1807 36.7046Z" fill="black"/>
    <path d="M66.9287 36.6921C68.8854 36.5178 69.0735 36.2065 69.0735 34.202V23.5815H68.4715C65.5615 23.5815 64.6333 24.1792 63.5672 27.3914H63.1909L63.7553 22.9216C65.2479 22.9839 66.9412 22.9839 68.183 22.9839H72.272C73.5262 22.9839 75.1819 22.9839 76.662 22.9216L77.2389 27.3914H76.8877C75.784 24.1792 74.8683 23.5815 71.9584 23.5815H71.3689V34.2269C71.3689 36.2065 71.557 36.5178 73.5137 36.717V37.0781H66.9287V36.6921Z" fill="black"/>
    <path d="M78.9448 23.3327V22.9841H85.0783V23.3327C83.3474 23.5693 83.1467 23.6565 83.1467 25.8229V31.5502C83.1467 34.5882 84.2254 36.3562 86.8218 36.3562C89.8195 36.3562 90.7226 34.1151 90.7351 31.2888V25.8104C90.7351 23.6565 90.547 23.5693 88.8035 23.3203V22.9717H93.5698V23.3203C91.8138 23.5569 91.6382 23.644 91.6382 25.8104V31.2514C91.6382 35.3352 89.8948 37.3149 86.2573 37.3149C82.3063 37.3149 80.8764 35.0738 80.8764 31.7619V25.8104C80.8764 23.6565 80.6883 23.5693 78.9448 23.3327Z" fill="black"/>
    <path d="M105.36 23.3328V22.9841H110.139V23.3328C108.395 23.5693 108.207 23.6565 108.207 25.8229V37.2278H107.229L98.2984 26.0221V34.2147C98.2984 36.3687 98.4991 36.4683 100.243 36.7048V37.0534H95.4136V36.7048C97.157 36.4807 97.3577 36.3811 97.3577 34.2147V24.9015L97.2699 24.8019C96.8648 24.1743 96.3087 23.6566 95.6519 23.2954V22.9841H98.7625L107.254 33.617V25.8104C107.254 23.6565 107.078 23.5693 105.36 23.3328Z" fill="black"/>
    <path d="M126.683 30.4545V30.8654C125.516 31.0148 125.429 31.3635 125.429 33.3556V35.7337C123.656 36.8028 121.62 37.3631 119.546 37.3522C118.564 37.4083 117.582 37.2576 116.663 36.9101C115.744 36.5627 114.91 36.0262 114.214 35.3361C113.519 34.6459 112.979 33.8176 112.629 32.9055C112.279 31.9934 112.127 31.0181 112.183 30.0437C112.183 25.4992 115.608 22.5732 119.972 22.5732C121.518 22.5502 123.055 22.7989 124.513 23.3078L124.877 27.6158H124.526C123.723 24.4658 122.117 23.2705 119.722 23.2705C117.326 23.2705 114.704 25.0136 114.704 30.0188C114.704 33.9657 116.724 36.5429 119.722 36.5429C120.976 36.5429 123.083 36.406 123.083 34.6629V33.3058C123.083 31.3635 123.083 30.9775 121.327 30.8156V30.4047L126.683 30.4545Z" fill="black"/>
    <path d="M32.2476 44.5112C30.8428 44.6233 30.4666 44.8598 29.6136 47.8107L26.4654 58.5183H25.3992L21.9625 48.4954L19.0024 58.5183H17.9362L13.7971 46.3913C13.2828 44.8972 13.0571 44.6233 11.7651 44.5112V44.1501H17.5599V44.5112C16.2304 44.6606 15.8667 44.947 16.1928 45.9679L19.1153 54.8578L21.3228 46.8022L20.4197 44.1501H22.9283L26.4278 54.8578L28.3468 48.2589C29.3628 44.7229 29.3126 44.6606 27.7071 44.5237V44.1626H32.1598L32.2476 44.5112Z" fill="black"/>
    <path d="M41.1907 58.2319H33.9785V57.8833C35.7345 57.6467 35.9101 57.5596 35.9101 55.3931V46.9889C35.9101 44.8349 35.7345 44.7353 33.9785 44.4988V44.1377H40.9273C42.1816 44.1377 43.8623 44.1377 45.3173 44.1377L45.8566 48.483H45.5054C44.4267 45.0715 42.9341 44.8972 39.234 44.8972H38.1427V50.5498H40.7767C41.8931 50.5498 42.5955 50.002 42.7962 48.3709H43.1474V53.538H42.7962C42.5955 51.9069 41.8931 51.3591 40.7767 51.3591H38.1427V56.6382C38.1427 57.3604 38.2431 57.5347 39.0458 57.5347H39.4472C43.2101 57.5347 44.7528 57.0864 45.9068 53.7994H46.4085L45.6434 58.1572C44.0881 58.2319 42.4324 58.2319 41.1907 58.2319Z" fill="black"/>
    <path d="M52.9813 55.3931C52.9813 57.5596 53.1569 57.6467 54.9129 57.8833V58.2319H48.7544V57.8833C50.5104 57.6467 50.686 57.5596 50.686 55.3931V46.9889C50.686 44.8349 50.5104 44.7353 48.7544 44.4988V44.1377H54.9129V44.4988C53.1569 44.7229 52.9813 44.8225 52.9813 46.9889V55.3931Z" fill="black"/>
    <path d="M74.693 44.5112C72.9244 44.7353 72.7488 44.8349 72.7488 47.0014V55.4056C72.7488 57.572 72.9244 57.6592 74.693 57.8957V58.2444H68.5344V57.8957C70.2904 57.6592 70.466 57.572 70.466 55.4056V46.0676L65.5994 57.709H65.2231L60.0805 45.7314V55.3931C60.0805 57.5596 60.2561 57.6467 62.0121 57.8833V58.2319H57.1831V57.8833C58.9517 57.6467 59.1147 57.5596 59.1147 55.3931V46.9889C59.1147 44.8349 58.9517 44.7353 57.1831 44.4988V44.1377H61.9996L66.1011 54.0111L70.2402 44.1501H74.7557L74.693 44.5112Z" fill="black"/>
    <path d="M76.3232 57.8835C77.5775 57.7715 77.8284 57.4228 78.9447 54.5841L83.1466 44.0632C83.5836 43.9944 83.9758 43.7573 84.2378 43.4033H84.3256L89.3427 55.9412C89.9323 57.4228 90.1329 57.8088 91.3998 57.8835V58.2321H85.6677V57.8835C87.0725 57.7341 87.3861 57.3606 86.9972 56.3645L85.9185 53.6503H80.2742L80.1739 53.9242C78.7691 57.4975 79.0827 57.7341 80.7634 57.8835V58.2321H76.3232V57.8835ZM80.6254 52.704H85.5297L83.0211 46.4786L80.6254 52.704Z" fill="black"/>
    <path d="M93.0303 57.8833C94.7863 57.6467 94.9619 57.5596 94.9619 55.3931V46.9889C94.9619 44.8349 94.7863 44.7353 93.0303 44.4988V44.1377H99.0007C102.375 44.1377 105.134 44.9345 105.134 47.8729C105.134 50.002 103.629 51.0105 101.484 51.4089L104.419 55.9534C105.335 57.3604 105.899 57.7961 107.053 57.9082V58.2568H103.065C102.751 57.6218 102.061 56.439 101.459 55.4803L100.443 53.9115C99.7156 52.8283 99.3268 52.0813 98.9756 51.5957H97.2572V55.4429C97.2572 57.5845 97.4328 57.6716 99.2265 57.9331V58.2817H93.0303V57.8833ZM98.8376 44.8225H97.2572V50.8237H98.8376C101.221 50.8237 102.6 50.3133 102.6 47.8107C102.6 45.3081 101.221 44.8225 98.8376 44.8225Z" fill="black"/>
    <path d="M1.78109 0H0V60H1.78109V0Z" fill="black"/>
</svg>
