<svg width="102" height="102" viewBox="0 0 102 102" fill="none" xmlns="http://www.w3.org/2000/svg">
<path d="M51.7081 61.6062L51.001 60.8991L50.2939 61.6062L13.524 98.3762C10.7903 101.11 6.35814 101.11 3.62447 98.3762C0.890801 95.6425 0.890801 91.2103 3.62447 88.4767L40.3944 51.7068L41.1015 50.9997L40.3944 50.2925L3.62522 13.5234C0.891546 10.7897 0.891546 6.35755 3.62522 3.62388C6.35889 0.890208 10.791 0.890208 13.5247 3.62388L50.2939 40.3931L51.001 41.1002L51.7081 40.3931L88.4773 3.62386C91.211 0.890191 95.6431 0.890191 98.3768 3.62386C101.11 6.35753 101.11 10.7897 98.3768 13.5234L61.6076 50.2925L60.9005 50.9996L61.6076 51.7068L98.3775 88.4767C101.111 91.2104 101.111 95.6425 98.3775 98.3762C95.6439 101.11 91.2117 101.11 88.478 98.3762L51.7081 61.6062Z" fill="#F3F4F6" stroke="#6B7280" stroke-width="2"/>
</svg>
