<svg width="44" height="47" viewBox="0 0 44 47" fill="none" xmlns="http://www.w3.org/2000/svg">
    <path d="M22.8135 17.3089C23.6415 15.8739 23.1506 14.0389 21.7156 13.2109C20.2806 12.3829 18.4455 12.8739 17.6175 14.3089L12.6175 22.9689C8.47555 30.1429 10.9335 39.3169 18.1075 43.4589C25.2815 47.6009 34.4555 45.1429 38.5975 37.9689L42.5975 31.0409C43.4255 29.6059 42.9346 27.7709 41.4996 26.9429C40.0646 26.1149 38.2295 26.6059 37.4015 28.0409L38.4015 26.3089C39.2295 24.8739 38.7385 23.0389 37.3035 22.2109C35.8685 21.3829 34.0336 21.8739 33.2056 23.3089L34.2056 21.5769C35.0336 20.1419 34.5425 18.3069 33.1075 17.4789C31.6725 16.6509 29.8376 17.1419 29.0096 18.5769L36.0096 6.45292C36.8376 5.01792 36.3466 3.18292 34.9116 2.35492C33.4766 1.52692 31.6415 2.01792 30.8135 3.45292L19.3135 23.3719L22.8135 17.3089Z"
          stroke="#fff" stroke-width="2" stroke-miterlimit="10" stroke-linecap="round" stroke-linejoin="round"/>
    <path d="M24.556 4.39702C17.054 0.568023 7.814 1.32602 1 6.67002" stroke="#fff" stroke-width="2"
          stroke-miterlimit="10" stroke-linecap="round" stroke-linejoin="round"/>
    <path d="M25 1V5L21 6" stroke="#fff" stroke-width="2" stroke-miterlimit="10" stroke-linecap="round"
          stroke-linejoin="round"/>
</svg>
