<svg width="39" height="46" viewBox="0 0 39 46" fill="none" xmlns="http://www.w3.org/2000/svg">
    <path d="M9.40272 25.837C8.57472 24.402 6.7397 23.91 5.3047 24.739C3.8697 25.567 3.37774 27.402 4.20674 28.837L9.20674 37.4969C13.3487 44.6709 22.5227 47.13 29.6967 42.9869C36.8707 38.8449 39.3297 29.6709 35.1867 22.497L31.1867 15.5689C30.3587 14.1339 28.5237 13.6419 27.0887 14.4709C25.6537 15.2989 25.1627 17.134 25.9907 18.569L24.9907 16.837C24.1627 15.402 22.3277 14.9099 20.8927 15.7389C19.4577 16.5669 18.9657 18.402 19.7947 19.837L18.7947 18.1049C17.9667 16.67 16.1317 16.178 14.6967 17.007C13.2617 17.835 12.7697 19.67 13.5987 21.1049L6.5987 8.98095C5.7707 7.54595 3.93574 7.05395 2.50074 7.88295C1.06574 8.71095 0.57372 10.5459 1.40272 11.9809L12.9027 31.9L9.40272 25.837Z"
          stroke="#fff" stroke-width="2" stroke-miterlimit="10" stroke-linecap="round" stroke-linejoin="round"/>
    <path d="M10.1992 4.39695C18.4642 0.177946 28.8392 1.52695 35.7552 8.44295" stroke="#fff" stroke-width="2"
          stroke-miterlimit="10" stroke-linecap="round" stroke-linejoin="round"/>
    <path d="M10.1992 1V5L14.1992 6" stroke="#fff" stroke-width="2" stroke-miterlimit="10" stroke-linecap="round"
          stroke-linejoin="round"/>
</svg>
