<svg width="285" height="209" viewBox="0 0 285 209" fill="none" xmlns="http://www.w3.org/2000/svg">
    <path fill-rule="evenodd" clip-rule="evenodd" d="M31.7235 185.709C53.1735 209.058 136.122 195.646 190.739 195.646C214.301 195.646 293.373 207.455 260.721 126.353C153.66 -139.566 -36.2409 111.728 31.7235 185.709Z" fill="#1A56DB"/>
    <path fill-rule="evenodd" clip-rule="evenodd" d="M224.794 178.761C225.484 177.592 226.339 176.304 227.679 176.082C228.207 175.995 228.486 175.421 228.665 174.916C230.88 168.705 231.093 161.797 229.267 155.461C228.745 153.652 229.387 151.735 230.022 149.963C231.662 145.39 233.301 140.818 234.94 136.245C234.001 134.62 231.525 134.669 230.256 133.286C228.623 131.507 229.855 128.678 231.134 126.63C238.605 114.665 246.077 102.699 253.548 90.734C254.463 89.2681 256.472 88.8086 258.156 89.1992C259.839 89.5898 261.277 90.6494 262.662 91.6836C268.111 95.7536 273.56 99.8236 279.009 103.894C281.934 106.078 285.162 108.868 284.994 112.515C284.901 114.533 283.746 116.326 282.629 118.009C278.31 124.517 273.992 131.024 269.673 137.532C267.24 141.198 267.912 146.013 267.177 150.351C266.015 157.205 261.315 162.834 256.962 168.255C252.61 173.676 248.255 179.73 248.01 186.678C247.718 194.959 243.784 203.046 237.45 208.388C239.287 203.93 227.679 205.708 214.4 200.425C216.586 192.695 220.711 185.679 224.794 178.761Z" fill="white"/>
    <path fill-rule="evenodd" clip-rule="evenodd" d="M78.9865 198.148C78.1585 197.47 77.8944 196.327 77.7482 195.264C76.0572 182.969 83.3196 170.833 82.026 158.489C81.3593 152.127 78.4364 146.192 74.7583 140.971C72.2183 137.366 72.0758 132.537 73.0235 128.224C73.9711 123.91 75.8827 119.877 77.172 115.654C82.9057 96.8746 75.9289 76.8126 69.0312 58.4329C82.7761 51.7862 98.8153 53.0736 114.042 53.9741C129.269 54.8746 145.645 54.9383 158.336 46.4346C160.076 64.8307 156.24 83.2472 152.426 101.324C171.778 99.4391 191.13 97.5538 210.481 95.6685C211.036 95.6144 211.643 95.5727 212.104 95.8878C212.719 96.3082 212.814 97.1656 212.849 97.9123C213.754 117.044 214.302 136.192 214.494 155.344C214.499 155.824 214.482 156.36 214.145 156.701C213.857 156.992 213.416 157.053 213.01 157.099C185.897 160.12 158.785 163.141 131.673 166.163C129.329 166.424 125.989 165.813 126.126 163.447C126.738 152.894 126.381 142.285 125.06 131.798C117.855 131.525 110.601 132.624 103.795 135.018C102.251 135.562 100.395 137.022 101.228 138.437C106.736 147.799 99.8991 161.871 107.381 169.729C109.954 172.431 109.776 176.682 109.266 180.386C108.173 188.327 106.316 196.161 103.73 203.744C104.981 195.016 79.7504 202.828 78.9865 198.148Z" fill="white"/>
    <path fill-rule="evenodd" clip-rule="evenodd" d="M1.43842 0.0126668C1.46158 0.19904 1.36074 0.39474 1.19552 0.48404C1.06394 0.352398 0.93236 0.220756 0.800781 0.0891132C0.998035 0.00283915 1.22174 -0.0217686 1.43303 0.019566L1.43842 0.0126668Z" fill="#111827"/>
    <path fill-rule="evenodd" clip-rule="evenodd" d="M180.73 128.779C180.75 128.534 180.779 128.271 180.941 128.086C181.1 127.906 181.35 127.841 181.584 127.786C187.617 126.382 193.849 125.832 200.036 126.159C200.824 126.201 201.837 126.468 201.889 127.255C202.188 131.768 202.487 136.282 202.786 140.795C202.801 141.024 202.808 141.277 202.662 141.453C202.543 141.597 202.351 141.652 202.17 141.699C195.736 143.377 188.954 143.707 182.387 142.664C182.218 142.637 182.04 142.605 181.908 142.495C181.75 142.362 181.694 142.146 181.649 141.944C180.681 137.636 180.37 133.18 180.73 128.779ZM182.152 136.266C182.271 137.97 182.628 139.658 183.211 141.264C183.792 141.348 184.368 141.468 184.947 141.566C189.937 142.411 195.042 141.561 200.031 140.712C200.385 140.652 200.774 140.572 200.992 140.287C201.216 139.996 201.186 139.59 201.146 139.226C200.974 137.67 200.802 136.115 200.63 134.56C200.616 134.434 200.598 134.3 200.513 134.207C200.41 134.093 200.242 134.075 200.089 134.065C196.543 133.831 192.985 134.096 189.442 134.36C187.483 134.507 185.524 134.653 183.565 134.799C183.105 134.833 182.582 134.902 182.317 135.28C182.122 135.558 182.129 135.926 182.152 136.266ZM182.208 129.761C181.898 130.755 181.842 131.827 182.047 132.848C182.084 133.032 182.136 133.225 182.276 133.35C182.482 133.535 182.797 133.505 183.071 133.464C186.408 132.976 189.781 132.733 193.154 132.738C193.63 132.739 193.776 132.099 193.771 131.623C193.763 130.926 193.756 130.229 193.748 129.532C193.744 129.128 193.723 128.684 193.447 128.39C193.115 128.036 192.561 128.047 192.077 128.084C190.96 128.17 189.843 128.255 188.725 128.34C188.191 128.381 186.773 128.744 186.121 128.787C184.987 128.968 183.853 129.149 182.718 129.33C182.597 129.349 182.47 129.372 182.376 129.451C182.286 129.529 182.243 129.647 182.208 129.761ZM197.17 132.794C198.056 132.805 198.944 132.716 199.811 132.53C200.018 132.485 200.235 132.429 200.382 132.278C200.598 132.055 200.596 131.707 200.58 131.397C200.534 130.499 200.489 129.6 200.443 128.701C200.426 128.38 200.39 128.019 200.14 127.819C199.919 127.642 199.608 127.653 199.326 127.672C198.34 127.739 197.354 127.806 196.368 127.873C196.212 127.884 196.048 127.897 195.917 127.983C195.679 128.141 195.643 128.472 195.636 128.758C195.614 129.71 195.653 130.665 195.753 131.612C195.782 131.887 195.821 132.176 195.991 132.393C196.256 132.732 196.74 132.788 197.17 132.794Z" fill="#9CA3AF"/>
    <path fill-rule="evenodd" clip-rule="evenodd" d="M196.171 109.055C197.489 108.484 199.107 108.676 200.256 109.537C201.404 110.399 202.04 111.899 201.861 113.324C202.669 112.887 203.693 112.457 204.447 112.981C205.298 113.573 205.104 114.848 204.976 115.877C204.753 117.675 205.042 119.533 205.802 121.177C206.116 121.857 206.386 122.887 205.689 123.161C205.572 123.207 205.444 123.218 205.318 123.228C197.154 123.886 188.99 124.544 180.826 125.202C180.602 125.22 180.352 125.23 180.182 125.082C180.009 124.932 179.988 124.676 179.978 124.447C179.9 122.526 179.822 120.606 179.744 118.686C179.723 118.171 179.713 117.615 180.003 117.19C180.485 116.485 181.493 116.487 182.336 116.353C183.178 116.218 184.158 115.507 183.834 114.718C183.473 113.838 184.705 113.195 185.645 113.052C186.585 112.909 187.833 112.348 187.548 111.441C187.237 110.45 188.601 109.834 189.631 109.697C190.357 109.601 191.117 109.508 191.807 109.757C192.496 110.006 193.079 110.716 192.924 111.433C192.746 112.253 193.745 113.017 194.533 112.727C195.32 112.438 195.64 111.361 195.241 110.622C194.915 110.019 195.542 109.327 196.171 109.055ZM200.387 121.71C200.082 121.143 200.08 120.469 200.077 119.826C200.064 116.806 199.878 113.786 199.521 110.787C199.503 110.636 199.475 110.467 199.351 110.378C199.244 110.302 199.1 110.311 198.969 110.323C198.332 110.382 197.576 110.523 197.324 111.112C197.216 111.363 197.229 111.648 197.244 111.92C197.405 114.947 197.567 117.975 197.729 121.002C197.744 121.284 197.781 121.607 198.016 121.765C198.143 121.851 198.304 121.867 198.458 121.875C199.104 121.91 199.756 121.854 200.387 121.71ZM189.407 117.055C189.328 117.56 189.216 118.06 189.187 118.57C189.137 119.422 189.317 120.268 189.495 121.102C189.609 121.637 190.301 121.901 190.807 121.694C191.314 121.488 191.62 120.948 191.704 120.407C191.788 119.867 191.69 119.317 191.604 118.776C191.265 116.654 191.119 114.502 191.167 112.353C191.179 111.809 190.648 111.318 190.107 111.372C189.566 111.426 189.143 112.011 189.261 112.542C189.592 114.02 189.641 115.56 189.407 117.055ZM194.776 114.156C194.457 113.739 193.728 113.961 193.479 114.423C193.231 114.885 193.307 115.445 193.369 115.966C193.529 117.327 193.545 118.704 193.414 120.068C193.376 120.469 193.333 120.908 193.555 121.246C193.897 121.765 194.645 121.76 195.264 121.697C195.457 121.677 195.68 121.64 195.777 121.471C195.845 121.354 195.829 121.208 195.811 121.074C195.526 118.958 195.241 116.843 194.956 114.727C194.929 114.527 194.898 114.317 194.776 114.156ZM201.847 115.065C201.607 115.392 201.557 115.818 201.536 116.223C201.465 117.612 201.648 118.999 201.832 120.378C201.904 120.921 202.153 121.619 202.699 121.581C203.253 121.544 203.398 120.803 203.385 120.248C203.351 118.778 203.317 117.308 203.283 115.838C203.274 115.451 203.233 115.003 202.912 114.787C202.576 114.561 202.087 114.738 201.847 115.065ZM185.113 114.718C185.113 114.718 185.356 116.637 185.441 117.614C185.548 118.842 185.683 120.066 185.848 121.287C185.872 121.464 185.904 121.656 186.035 121.778C186.262 121.99 187.136 121.849 187.298 121.584C187.459 121.319 187.45 120.989 187.436 120.679C187.391 119.699 187.347 118.719 187.302 117.739C187.255 116.689 187.005 114.423 187.005 114.423M181.94 121.665C182.01 121.885 182.093 122.115 182.27 122.262C182.617 122.549 183.18 122.371 183.453 122.014C183.726 121.656 183.788 121.185 183.84 120.738C183.904 120.19 183.966 119.619 183.789 119.096C183.611 118.574 183.119 118.113 182.569 118.162C182.063 118.207 181.671 118.669 181.553 119.163C181.435 119.657 181.535 120.175 181.658 120.668C181.741 121.003 181.835 121.336 181.94 121.665Z" fill="#E5E7EB"/>
    <path fill-rule="evenodd" clip-rule="evenodd" d="M81.8459 172.644C82.0968 170.79 82.4483 168.749 83.9049 167.575C85.0665 166.639 86.661 166.49 88.1525 166.461C93.0388 166.367 97.9407 167.16 102.548 168.791C104.005 169.307 105.531 169.986 106.327 171.311C107.19 172.745 106.98 174.554 106.741 176.211L103.041 201.917C105.592 194.473 107.424 186.782 108.503 178.986C109.006 175.349 109.181 171.176 106.643 168.524C102.681 164.383 102.789 158.485 102.899 152.487C102.993 147.311 103.09 142.062 100.572 137.804C99.7502 136.415 101.582 134.981 103.105 134.447C109.819 132.097 116.976 131.018 124.085 131.286C125.389 141.581 125.741 151.996 125.137 162.356C125.002 164.68 128.297 165.279 130.61 165.023L210.858 156.124C211.259 156.08 211.694 156.02 211.978 155.733C212.311 155.399 212.327 154.873 212.322 154.402C212.133 135.6 211.592 116.801 210.7 98.0195C210.665 97.2864 210.572 96.4447 209.965 96.032C209.51 95.7226 208.911 95.7635 208.363 95.8166L151.086 101.369C154.848 83.6223 158.633 65.5424 156.916 47.4824C144.395 55.8308 128.238 55.7682 113.215 54.8841C112.59 54.8474 111.965 54.81 111.338 54.7725C96.8802 53.9085 81.8035 53.0075 68.8062 59.2615C75.6116 77.3053 82.495 97.0007 76.838 115.437C76.3376 117.068 75.7421 118.67 75.1468 120.272C74.2291 122.741 73.3121 125.208 72.745 127.777C71.81 132.011 71.9505 136.753 74.4566 140.292C78.0855 145.417 80.9693 151.244 81.627 157.489C82.2512 163.415 80.8565 169.293 79.4634 175.164C78.0078 181.298 76.554 187.425 77.4065 193.592C77.5507 194.636 77.8112 195.758 78.6282 196.423L81.8459 172.644ZM87.5231 98.1717C89.0406 98.2254 89.6439 100.131 89.8379 101.637L91.3744 113.562C88.3744 112.007 84.1541 114.647 84.2402 118.025C81.7123 113.146 81.3283 107.554 80.9481 102.019C80.8654 100.814 80.7828 99.6129 80.6785 98.4219C79.5623 85.6868 75.7243 73.3689 71.9099 61.1674C71.366 59.4275 73.7154 58.2992 75.519 58.0348C87.3548 56.2995 99.3336 56.5391 111.318 56.7788C116.75 56.8875 122.184 56.9961 127.605 56.9209C137.239 56.7873 147.432 55.8755 155.247 50.24C157.003 61.9491 154.616 73.7627 152.259 85.4276C151.94 87.0055 151.622 88.5806 151.314 90.1524C148.734 103.344 146.978 117.406 151.915 129.908C152.123 130.435 151.413 130.832 150.859 130.948C146.799 131.795 142.601 131.977 138.483 131.485C136.716 131.275 134.968 130.941 133.22 130.608C131.903 130.357 130.587 130.106 129.262 129.907C119.286 128.411 108.874 129.964 99.7707 134.308C99.4058 134.482 98.9718 134.4 98.5898 134.268C96.746 133.63 95.4307 131.926 94.7745 130.089C94.1182 128.251 94.0242 126.268 93.9367 124.319L93.5695 116.144C93.5563 115.851 93.6332 115.452 93.9271 115.443C109.875 114.944 125.804 113.869 141.674 112.22C141.003 108.465 140.937 104.603 141.478 100.827C141.819 98.4438 139.578 96.2705 137.191 95.9516C134.805 95.6326 132.444 96.7138 130.462 98.0815C129.721 98.5932 129.009 99.149 128.298 99.7045C127.107 100.634 125.918 101.562 124.594 102.282C123.727 102.753 122.685 103.133 121.775 102.752C120.661 102.287 120.288 100.962 119.954 99.779C119.933 99.7046 119.913 99.6308 119.892 99.5578C119.457 98.0345 118.74 96.5185 117.479 95.5605C116.217 94.6025 114.314 94.3638 113.069 95.343C112.004 96.1801 111.667 97.6299 111.489 98.9724C111.473 99.0918 111.458 99.2119 111.442 99.3323C111.284 100.567 111.121 101.842 110.384 102.832C109.576 103.919 107.771 104.384 106.885 103.361C105.131 101.337 102.053 100.912 99.4708 101.622C96.8884 102.333 94.6787 103.974 92.5361 105.581C91.2436 103.558 91.1366 100.834 92.2666 98.7166C92.2729 98.7049 92.2792 98.6931 92.2855 98.6812C92.498 98.2838 92.742 97.8272 92.5542 97.4222C92.4379 97.1714 92.1813 97.0176 91.9272 96.9086C90.4077 96.257 88.4663 96.8138 87.5231 98.1717ZM133.185 132.357C134.035 132.526 135.079 132.905 135.132 133.77C135.633 142.017 142.187 149.428 150.246 151.254C158.304 153.079 167.235 149.388 171.933 142.592C176.632 135.795 177 126.354 173.147 119.044C169.015 111.206 158.974 107.043 150.508 109.659C150.115 107.927 150.159 106.097 150.635 104.386C150.724 104.068 150.839 103.736 151.095 103.529C151.346 103.326 151.684 103.28 152.004 103.241L175.853 100.369C177.95 100.116 180.052 99.8635 182.163 99.8461C191.245 99.7712 200.319 98.8657 209.236 97.1445C210.621 115.75 211.273 134.409 211.19 153.065C211.186 153.95 210.916 155.127 210.031 155.152C195.022 155.59 180.131 157.564 165.234 159.539C155.226 160.866 145.215 162.193 135.164 163.055C132.923 163.247 130.667 163.416 128.429 163.203C128.023 163.164 127.566 163.081 127.345 162.739C127.212 162.532 127.197 162.273 127.186 162.028L125.848 132.187C125.831 131.801 125.854 131.337 126.188 131.143C126.409 131.015 126.686 131.061 126.937 131.111L133.185 132.357ZM92.1224 125.449C91.8852 126.999 91.6184 128.742 92.6337 129.915C96.421 134.289 100.355 138.962 101.362 144.659C101.832 147.32 101.63 150.058 101.429 152.785C101.176 156.22 100.924 159.638 102.018 162.86C102.046 162.944 102.076 163.029 102.105 163.113C102.306 163.688 102.511 164.273 102.446 164.873C102.371 165.561 101.774 166.253 101.092 166.135L93.1747 164.77C90.5527 164.318 87.7827 163.878 85.2921 164.814C84.8106 164.995 84.2563 164.677 83.9983 164.232C83.7402 163.787 83.7063 163.251 83.6839 162.738C83.6569 162.117 83.6366 161.492 83.6163 160.866C83.4884 156.924 83.3581 152.909 81.5337 149.455L75.7129 138.436C74.8536 136.81 73.9742 135.111 73.9149 133.272C73.8753 132.044 74.2068 130.838 74.5354 129.654L77.4393 119.194C78.0506 116.992 78.6974 114.72 80.1452 112.951C83.6624 118.919 84.0094 126.638 81.0419 132.897C80.7673 133.476 81.606 134.072 82.2038 133.841C82.8016 133.611 83.1051 132.956 83.3158 132.351C84.16 129.927 84.456 127.372 84.7524 124.813C84.9922 122.742 85.2323 120.669 85.7633 118.662C86.0885 117.432 86.5577 116.176 87.5074 115.33C88.4571 114.484 90.0059 114.194 91.0011 114.986C91.7626 115.593 92.0102 116.629 92.1551 117.592C92.5373 120.132 92.5355 122.729 92.1499 125.269C92.1408 125.328 92.1316 125.389 92.1224 125.449ZM105.784 104.798C106.951 105.692 108.094 106.567 109.494 106.404C111.274 106.199 112.383 104.366 112.9 102.651C113.013 102.275 113.114 101.891 113.215 101.506C113.575 100.131 113.938 98.7462 114.881 97.712C115.155 97.4114 115.55 97.1317 115.939 97.2495C116.254 97.345 116.438 97.6644 116.584 97.9595C116.792 98.3777 116.988 98.8031 117.185 99.2285C117.739 100.428 118.293 101.629 119.097 102.671C120.187 104.083 121.882 105.194 123.655 105C125.241 104.826 126.48 103.703 127.687 102.609C127.935 102.385 128.181 102.162 128.429 101.948C131.337 99.44 135.125 97.9727 138.964 97.867C138.446 99.1611 138.791 100.573 139.13 101.958C139.212 102.291 139.293 102.623 139.362 102.952C139.903 105.543 139.63 108.298 138.588 110.731L112.948 112.705C106.962 113.166 100.961 113.627 94.9612 113.416C94.5822 113.403 94.1936 113.385 93.8449 113.236C93.1864 112.954 92.7952 112.251 92.6535 111.549C92.3357 109.975 93.0615 108.335 94.1609 107.164C95.2602 105.993 96.696 105.205 98.1061 104.436C99.5734 103.636 101.203 102.809 102.839 103.15C103.927 103.378 104.863 104.094 105.784 104.798ZM154.337 142.149C150.452 142.069 147.087 138.9 145.933 135.19C145.698 134.432 146.188 133.601 146.863 133.185C147.539 132.769 148.356 132.671 149.144 132.582L154.836 131.943C153.105 128.579 151.872 124.959 151.19 121.238C151.128 120.9 151.072 120.545 151.178 120.219C151.366 119.647 151.983 119.345 152.554 119.153C157.178 117.599 162.731 119.486 165.45 123.536C168.169 127.586 167.813 133.441 164.621 137.13C163.24 138.728 161.429 139.907 159.522 140.814C157.895 141.587 156.137 142.186 154.337 142.149ZM172.769 122.152C173.46 124.435 173.66 126.835 173.755 129.218C172.203 128.983 170.635 128.85 169.066 128.819C168.759 124.811 166.091 121.19 162.584 119.226C159.078 117.261 154.845 116.837 150.882 117.509C150.848 116.944 150.745 116.355 150.642 115.765C150.37 114.21 150.099 112.654 151.104 111.55C151.712 110.883 152.638 110.616 153.525 110.451C157.565 109.698 161.873 110.487 165.384 112.622C168.896 114.757 171.578 118.219 172.769 122.152ZM144.281 134.785C144.275 134.859 144.268 134.932 144.265 135.001C144.239 135.555 144.497 136.063 144.752 136.566C144.821 136.701 144.889 136.835 144.952 136.97C145.248 137.608 145.391 138.448 144.896 138.947C143.699 140.156 142.641 141.502 141.75 142.951C141.529 143.31 140.987 143.339 140.624 143.125C140.262 142.912 140.037 142.531 139.828 142.166C138.503 139.856 137.145 137.44 136.98 134.782C136.959 134.452 136.996 134.052 137.289 133.897C137.418 133.83 137.57 133.828 137.716 133.827L143.641 133.809C143.783 133.809 143.932 133.81 144.055 133.88C144.345 134.045 144.312 134.429 144.281 134.785ZM94.1451 64.1538C94.8312 64.1337 95.7467 64.3131 95.795 64.9978L84.9189 66.5468C84.3328 66.6302 83.6758 66.6967 83.2042 66.3388C82.7326 65.9809 82.7801 65.0335 83.3678 64.9624C86.9455 64.5296 90.5429 64.2597 94.1451 64.1538ZM84.279 69.6282C84.31 69.2755 84.7532 69.1479 85.1049 69.1081L106.322 66.7054C106.705 66.6619 107.114 66.6226 107.46 66.7954C107.805 66.9682 108.027 67.441 107.802 67.7544C107.636 67.9855 107.317 68.0325 107.034 68.06L85.3327 70.1658C84.8814 70.2096 84.2394 70.0798 84.279 69.6282ZM131.844 73.2013C130.657 73.4621 129.439 73.0338 128.3 72.6083C124.619 71.2326 120.953 69.8189 117.301 68.3675C115.827 67.7816 114.209 68.659 112.883 69.5299C109.046 72.0505 105.352 74.7883 101.824 77.7259C100.918 78.4805 99.5239 77.9511 98.61 77.2058C98.4168 77.0482 98.2266 76.8801 98.0357 76.7115C97.3239 76.0824 96.603 75.4453 95.6823 75.3147C94.267 75.1139 93.022 76.1867 91.9965 77.1826L85.3833 83.6052C84.4939 84.469 83.5577 85.8522 84.3493 86.8064C84.8716 87.4361 85.8305 87.404 86.6431 87.3098C90.8856 86.818 95.1072 86.1284 99.3274 85.439H99.3274H99.3275H99.3275H99.3275H99.3276H99.3276H99.3276H99.3276C106.303 84.2997 113.274 83.161 120.328 82.9169C121.892 82.8628 123.456 82.8529 125.02 82.8429C126 82.8367 126.98 82.8305 127.959 82.8134C132.376 82.7364 136.79 82.4388 141.178 81.9219C141.39 81.8969 141.631 81.8532 141.742 81.6701C141.825 81.5318 141.804 81.3573 141.78 81.1977L139.922 68.552C139.827 67.9095 139.662 67.1668 139.075 66.8893C138.482 66.6088 137.783 66.9704 137.296 67.4102C136.534 68.0986 135.947 69.0126 135.368 69.9143C134.418 71.3936 133.49 72.8396 131.844 73.2013ZM101.663 80.1215C105.632 76.8578 109.771 73.8003 114.057 70.9654C114.937 70.3833 116.007 69.7873 116.99 70.1695L127.383 74.2081C129.118 74.8821 131.015 75.5649 132.796 75.0245C134.866 74.3963 136.103 72.3367 137.145 70.4411C137.348 70.0724 137.938 70.1148 138.23 70.4177C138.522 70.7206 138.596 71.1664 138.656 71.5829L139.417 76.8564C139.534 77.6662 139.648 78.5064 139.414 79.2904C139.18 80.0743 138.493 80.7864 137.675 80.7706C124.297 80.5123 110.893 81.6154 97.7371 84.0575C97.3296 84.1331 96.922 84.21 96.5142 84.287C93.3714 84.8804 90.217 85.476 87.023 85.4866C88.5652 83.3021 90.5195 81.4467 92.4602 79.607C93.5257 78.5968 94.858 77.5073 96.2885 77.8377C97.061 78.0161 97.6535 78.5712 98.243 79.1234C98.432 79.3005 98.6208 79.4773 98.815 79.6413C99.615 80.3167 100.854 80.7865 101.663 80.1215ZM273.292 116.908C272.938 117.04 272.542 116.95 272.18 116.836C269.734 116.067 267.747 114.347 265.795 112.657C265.53 112.428 265.266 112.2 265.002 111.974C261.767 109.215 258.256 106.778 254.538 104.714C254.16 104.504 253.763 104.283 253.532 103.917C253.3 103.552 253.307 102.996 253.664 102.752C255.331 101.613 256.412 99.6603 256.492 97.6433C256.513 97.1059 257.12 96.7475 257.657 96.7905C258.193 96.8336 258.66 97.1558 259.099 97.4672L276.086 109.526C276.417 109.76 276.773 110.032 276.854 110.43C276.92 110.754 276.784 111.082 276.647 111.384C275.915 113 275.072 114.567 274.127 116.069C273.913 116.41 273.669 116.768 273.292 116.908ZM256.298 102.603C256.098 102.955 255.925 103.465 256.249 103.708L270.11 114.145C270.87 114.717 272.049 115.253 272.647 114.514C273.334 113.666 273.975 112.781 274.567 111.864C274.729 111.613 274.894 111.327 274.836 111.034C274.782 110.767 274.558 110.573 274.346 110.401C269.259 106.276 263.872 102.52 258.243 99.1723L256.298 102.603ZM250.329 108.087C249.895 108.182 249.623 108.602 249.399 108.986C249.066 109.558 248.725 110.153 248.661 110.812C248.563 111.817 249.126 112.766 249.756 113.556C250.238 114.162 250.785 114.737 251.467 115.104C252.149 115.471 252.987 115.609 253.707 115.323C254.374 115.059 254.856 114.479 255.309 113.922C255.59 113.575 255.877 113.218 256.016 112.794C256.156 112.37 256.117 111.857 255.804 111.539C254.503 110.215 252.975 109.117 251.306 108.306C251 108.158 250.662 108.015 250.329 108.087ZM254.068 112.807C254.04 113.496 253.369 113.819 252.319 113.411C251.269 113.003 250.434 111.471 250.46 111.279C250.283 110.882 250.725 110.434 251.16 110.431C251.594 110.429 251.975 110.706 252.319 110.971L253.362 111.773C253.706 112.038 254.085 112.373 254.068 112.807ZM248.995 122.169C248.703 122.163 248.431 122.026 248.175 121.886C246.75 121.105 245.429 120.133 244.261 119.004C244.001 118.753 243.751 118.31 244.028 118.079C244.955 117.308 245.954 116.402 246.045 115.2C246.09 114.603 246.866 114.308 247.435 114.493C247.914 114.649 248.28 115.015 248.64 115.374C248.709 115.443 248.777 115.511 248.846 115.577C249.276 115.993 249.828 116.382 250.421 116.3C251.174 116.196 251.803 117.006 251.791 117.766C251.778 118.525 251.323 119.201 250.852 119.797C250.806 119.855 250.76 119.913 250.714 119.972L250.713 119.973L250.712 119.974C250.282 120.512 249.843 121.063 249.674 121.727C249.603 122.01 249.286 122.175 248.995 122.169ZM246.535 118.36L248.361 119.595C248.473 119.671 248.598 119.75 248.732 119.732C248.858 119.716 248.956 119.619 249.043 119.527C249.3 119.258 249.562 118.98 249.692 118.632C249.821 118.284 249.782 117.846 249.5 117.605C249.073 117.241 248.634 116.87 248.107 116.681C247.579 116.492 246.936 116.521 246.522 116.898C246.108 117.276 246.071 118.046 246.535 118.36ZM262.835 119.676L263.727 117.779C264.001 117.198 264.266 116.479 263.897 115.954C263.769 115.772 263.579 115.643 263.395 115.519L260.147 113.33C259.796 113.094 259.417 112.848 258.994 112.855C258.494 112.863 258.074 113.22 257.719 113.573C257.187 114.1 256.689 114.663 256.23 115.256C255.881 115.707 255.594 116.45 256.071 116.763L261.041 120.024C261.434 120.281 261.931 120.545 262.344 120.321C262.585 120.19 262.717 119.925 262.835 119.676ZM261.733 118.333C261.525 118.381 261.307 118.328 261.102 118.266C259.847 117.888 258.699 117.164 257.816 116.194C257.523 115.872 257.689 115.303 258.062 115.077C258.434 114.851 258.919 114.903 259.321 115.072C259.581 115.181 259.818 115.333 260.056 115.485C260.186 115.568 260.317 115.651 260.451 115.728C260.595 115.81 260.746 115.885 260.896 115.961C261.323 116.175 261.751 116.389 262.042 116.759C262.436 117.26 262.355 118.19 261.733 118.333ZM263.412 120.452C263.984 120.316 264.159 119.732 264.341 119.125C264.492 118.623 264.647 118.106 265.035 117.812C265.703 117.307 266.649 117.729 267.369 118.158L269.659 119.52C270.024 119.737 270.397 119.961 270.659 120.296C270.921 120.63 271.049 121.104 270.866 121.487C270.744 121.742 270.513 121.912 270.28 122.083C270.09 122.223 269.898 122.364 269.764 122.553C269.592 122.797 269.527 123.103 269.464 123.405C269.385 123.784 269.307 124.157 269.017 124.396C268.49 124.83 267.707 124.482 267.124 124.126L263.898 122.155C263.573 121.956 263.23 121.738 263.07 121.392C262.91 121.045 263.041 120.54 263.412 120.452ZM267.641 122.41C268.103 122.252 268.474 121.91 268.83 121.576C269.089 121.335 268.743 120.937 268.435 120.763L266.458 119.651C266.252 119.535 265.966 119.429 265.806 119.603C265.291 120.165 265.216 121.082 265.633 121.719C266.05 122.357 266.92 122.656 267.641 122.41ZM244.966 122.34C244.524 122.215 244.074 122.088 243.712 121.842C243.151 121.459 242.37 121.552 241.781 121.89C241.192 122.228 240.753 122.77 240.328 123.3C240.092 123.594 239.85 123.901 239.76 124.267C239.67 124.633 239.777 125.076 240.107 125.26L243.553 127.181C243.814 127.326 244.105 127.476 244.397 127.412C244.687 127.347 244.888 127.089 245.062 126.849L245.949 125.629C246.443 124.949 246.958 124.084 246.597 123.326C246.308 122.718 245.647 122.532 244.966 122.34ZM243.876 125.5C243.696 125.548 243.51 125.461 243.344 125.377L240.996 124.182C241.448 123.543 242.306 123.298 243.085 123.375C243.863 123.453 244.586 123.799 245.29 124.139L244.211 125.26C244.114 125.36 244.01 125.465 243.876 125.5ZM216.834 198.643C218.944 191.179 222.927 184.405 226.869 177.726C227.535 176.597 228.361 175.353 229.655 175.139C230.165 175.055 230.433 174.501 230.607 174.014C232.745 168.016 232.951 161.347 231.187 155.229C230.684 153.483 231.304 151.631 231.917 149.921L236.665 136.675C236.171 135.821 235.238 135.446 234.292 135.066C233.5 134.748 232.701 134.427 232.143 133.819C230.566 132.101 231.755 129.369 232.99 127.392L254.632 92.7335C255.516 91.3181 257.455 90.8745 259.08 91.2516C260.706 91.6288 262.094 92.6518 263.431 93.6504L279.215 105.439C282.039 107.549 285.156 110.243 284.993 113.763C284.903 115.712 283.788 117.443 282.71 119.068L270.201 137.918C268.584 140.355 268.387 143.318 268.19 146.295C268.101 147.641 268.012 148.99 267.791 150.295C266.712 156.659 262.474 161.929 258.413 166.979L258.39 167.008C258.236 167.2 258.082 167.391 257.928 167.582C253.726 172.816 249.521 178.661 249.285 185.369C249.003 193.365 245.205 201.174 239.089 206.331L244.411 193.419C245.677 190.348 246.849 186.528 244.73 183.97C243.772 182.813 242.323 182.2 240.933 181.63L232.667 178.238C232.097 178.005 231.51 177.767 230.893 177.763C228.973 177.752 227.831 179.834 227.052 181.59C224.359 187.662 220.918 193.403 216.834 198.643ZM244.014 181.108C245.431 181.633 247.426 181.951 248.098 180.598C251.349 174.045 254.688 167.367 259.862 162.196C262.844 159.216 264.673 155.24 265.707 151.153C266.741 147.066 267.034 142.833 267.323 138.627C266.067 139.084 265.958 140.779 265.963 142.115C265.975 145.061 265.46 148.008 264.45 150.775C264.239 151.354 263.955 151.98 263.389 152.224C262.823 152.468 261.989 151.977 262.179 151.391C263.639 146.89 264.183 142.094 263.769 137.38C263.64 135.919 263.368 134.355 262.329 133.32C262.442 135.627 262.554 137.945 262.321 140.244C261.916 144.221 260.49 148.012 259.077 151.751C258.893 152.237 258.672 152.766 258.205 152.994C257.739 153.222 257.016 152.861 257.138 152.356L259.254 143.607C260.418 138.797 261.562 133.623 259.761 129.013C258.853 128.952 258.64 130.249 258.721 131.155C259.276 137.359 257.561 143.516 255.863 149.508C255.664 150.208 254.963 151.083 254.418 150.601C254.183 150.394 254.172 150.036 254.191 149.723C254.298 147.961 254.781 146.255 255.263 144.551L255.264 144.551L255.264 144.551C255.413 144.022 255.563 143.493 255.701 142.963C256.977 138.076 257.303 132.943 256.654 127.934C255.536 129.367 255.062 131.184 254.614 132.946L251.958 143.402C250.757 148.129 249.223 153.325 245.059 155.864C244.727 156.067 244.343 156.255 243.965 156.165C243.495 156.054 243.229 155.568 243.033 155.127C240.375 149.141 240.044 142.158 242.121 135.947C242.247 135.57 241.864 135.177 241.468 135.145C241.071 135.114 240.7 135.33 240.376 135.559C236.967 137.965 235.661 142.322 234.576 146.352L233.134 151.709C232.923 152.492 232.712 153.281 232.668 154.09C232.601 155.32 232.922 156.523 233.242 157.72C233.316 157.998 233.39 158.275 233.459 158.552C234.845 164.118 234.219 170.163 231.72 175.326C231.352 176.087 232.324 176.78 233.117 177.073L244.014 181.108ZM249.4 129.978C248.831 129.587 248.222 129.14 248.046 128.472C247.777 127.448 248.752 126.42 249.801 126.282C250.851 126.145 251.878 126.651 252.747 127.255C253.973 128.104 255.523 126.808 256.441 125.633C255.203 124.893 254.023 123.744 253.974 122.302C253.925 120.861 255.677 119.488 256.843 120.337C257.296 120.666 257.843 120.867 258.385 121.066C259.196 121.365 259.993 121.658 260.438 122.368C260.944 123.176 260.764 124.269 260.249 125.071C259.734 125.873 258.941 126.449 258.167 127.005C259.278 127.115 260.36 127.511 261.279 128.145L262.281 125.225C262.359 124.999 262.444 124.762 262.622 124.602C262.965 124.294 263.5 124.389 263.939 124.529C265.093 124.895 266.225 125.466 266.986 126.407C267.748 127.348 268.065 128.715 267.533 129.802C267.001 130.889 265.499 131.469 264.481 130.814C264.27 130.678 264.058 130.496 263.846 130.314C263.279 129.828 262.712 129.342 262.164 129.731C263.836 131.033 264.984 132.989 265.306 135.083C270.57 127.066 275.776 119.012 280.926 110.922C281.418 110.149 281.814 108.932 281.014 108.488C277.594 106.591 274.571 104.05 271.555 101.515C267.749 98.3153 263.954 95.1253 259.386 93.252C259.096 93.1331 258.779 93.0181 258.476 93.098C258.159 93.1817 257.935 93.458 257.736 93.7187C249.23 104.82 241.597 116.589 234.929 128.883C233.998 130.598 235.243 132.642 236.435 134.187C237.03 134.959 238.178 135.775 238.827 135.048C239.645 134.131 240.986 133.607 242.145 134.016C243.303 134.425 244.024 135.932 243.394 136.987C242.938 137.75 243.83 138.598 244.61 139.025C246.167 139.878 247.764 140.657 249.395 141.36C249.621 141.458 249.885 141.554 250.106 141.443C250.316 141.338 250.401 141.088 250.467 140.862L252.273 134.647C252.57 133.625 252.769 132.299 251.892 131.695L249.4 129.978ZM281.711 112.557C281.471 112.474 281.252 112.714 281.111 112.925L267.587 133.169C267.223 133.714 266.851 134.28 266.745 134.927C266.639 135.573 266.876 136.324 267.464 136.612C268.438 137.089 269.457 136.087 270.082 135.201L282.648 117.392C283.581 116.07 282.791 114.262 281.992 112.855C281.923 112.733 281.843 112.602 281.711 112.557ZM243.634 139.589C243.395 139.416 243.039 139.519 242.84 139.736C242.641 139.953 242.559 140.25 242.484 140.534C242.3 141.235 242.114 141.943 242.086 142.668C242.059 143.392 242.191 144.112 242.322 144.825L243.617 151.865C243.671 152.16 243.735 152.474 243.944 152.689C244.153 152.904 244.561 152.95 244.73 152.703C246.647 149.899 248.591 147.041 249.594 143.796C249.718 143.393 249.755 142.826 249.359 142.677C247.324 141.911 245.392 140.869 243.634 139.589ZM258.59 122.219C257.941 121.601 257.083 121.206 256.191 121.115C255.378 121.032 254.909 122.174 255.28 122.902C255.651 123.631 256.471 123.991 257.23 124.295C257.765 124.51 258.415 124.712 258.881 124.373C259.552 123.886 259.19 122.791 258.59 122.219ZM253.251 130.378C253.515 130.19 253.55 129.805 253.476 129.489C253.196 128.297 251.89 127.688 250.717 127.339C250.263 127.204 249.699 127.11 249.379 127.459C249.112 127.751 249.169 128.233 249.399 128.555C249.629 128.876 249.99 129.074 250.338 129.261L252.149 130.237C252.494 130.423 252.932 130.605 253.251 130.378ZM263.56 126.083C263.176 126.597 263.215 127.344 263.535 127.899C263.855 128.455 264.41 128.841 264.994 129.103C265.195 129.193 265.415 129.272 265.63 129.229C265.816 129.193 265.974 129.068 266.088 128.916C266.506 128.357 266.303 127.514 265.824 127.006C265.344 126.498 264.662 126.244 264.005 126.006C263.892 125.965 263.76 125.925 263.656 125.987C263.617 126.011 263.587 126.047 263.56 126.083Z" fill="#111827"/>
</svg>
