<svg width="114" height="82" viewBox="0 0 114 82" fill="none" xmlns="http://www.w3.org/2000/svg">
<path d="M41.3598 62.911L100.799 3.10599C100.799 3.10596 100.799 3.10592 100.799 3.10588C102.14 1.75677 103.958 1 105.852 1C107.745 1 109.563 1.75673 110.904 3.10578C112.246 4.45558 113 6.28735 113 8.1986C113 10.1098 112.246 11.9416 110.904 13.2914L45.7035 78.894C45.7035 78.8941 45.7034 78.8941 45.7034 78.8941C44.3621 80.2432 42.5444 81 40.6505 81C38.7566 81 36.939 80.2432 35.5977 78.8941C35.5976 78.8941 35.5976 78.8941 35.5975 78.894L3.00341 46.099C1.70391 44.7421 0.983973 42.9252 1.00027 41.0382C1.01659 39.1483 1.77003 37.3417 3.0964 36.0072C4.42256 34.6728 6.21527 33.9171 8.08806 33.9007C9.95802 33.8843 11.7608 34.6064 13.1091 35.9136L39.9412 62.911L40.6505 63.6247L41.3598 62.911Z" fill="green" stroke="#6B7280" stroke-width="2"/>
</svg>
